<svg xmlns="http://www.w3.org/2000/svg" viewBox="0 0 1254 1254" width="1254" height="1254">
<g fill="#000000" stroke="none">
<path d="M 959 291 L 942 272 L 932 265 L 903 255 L 721 255 L 702 258 L 681 267 L 661 284 L 646 309 L 641 329 L 638 367 L 633 382 L 618 408 L 601 425 L 578 439 L 555 446 L 521 449 L 499 457 L 479 472 L 471 482 L 460 503 L 456 520 L 457 547 L 467 572 L 477 585 L 492 597 L 504 603 L 523 608 L 554 606 L 568 601 L 581 593 L 595 580 L 609 556 L 613 542 L 617 500 L 628 473 L 651 445 L 680 427 L 708 420 L 898 418 L 917 414 L 932 407 L 942 400 L 956 385 L 965 369 L 970 353 L 971 324 L 966 305 Z"/>
<path d="M 344 256 L 320 263 L 303 274 L 285 295 L 276 316 L 273 332 L 273 530 L 276 546 L 284 565 L 302 586 L 325 599 L 355 604 L 378 600 L 401 588 L 417 572 L 429 550 L 434 523 L 434 332 L 431 314 L 423 295 L 403 272 L 375 258 Z"/>
<path d="M 703 630 L 682 635 L 660 648 L 645 665 L 634 690 L 632 701 L 631 898 L 638 929 L 646 943 L 658 956 L 679 969 L 697 974 L 712 975 L 734 971 L 758 958 L 774 941 L 785 919 L 788 905 L 788 701 L 782 677 L 775 664 L 763 650 L 739 635 L 718 630 Z"/>
<path d="M 585 646 L 566 634 L 545 628 L 523 628 L 494 638 L 471 658 L 459 679 L 454 698 L 454 722 L 451 739 L 442 761 L 430 778 L 412 794 L 392 805 L 370 811 L 343 812 L 326 816 L 306 827 L 293 839 L 285 850 L 276 870 L 273 885 L 273 904 L 283 935 L 301 957 L 323 970 L 344 975 L 372 973 L 395 963 L 415 945 L 427 924 L 431 909 L 432 878 L 435 863 L 445 840 L 454 827 L 473 809 L 494 797 L 514 791 L 557 786 L 574 778 L 591 764 L 602 749 L 608 736 L 613 707 L 611 690 L 604 670 Z"/>
<path d="M 658 466 L 650 475 L 639 494 L 633 517 L 635 547 L 639 559 L 650 577 L 664 590 L 685 601 L 729 607 L 749 614 L 767 625 L 782 639 L 796 659 L 804 678 L 808 697 L 809 722 L 815 742 L 827 761 L 844 776 L 869 787 L 899 789 L 921 783 L 943 769 L 961 746 L 967 731 L 970 715 L 970 699 L 967 684 L 960 667 L 949 652 L 938 642 L 918 631 L 903 627 L 860 624 L 836 614 L 822 604 L 807 588 L 795 566 L 789 544 L 788 510 L 782 489 L 771 472 L 751 455 L 728 446 L 702 445 L 683 450 Z"/>
<path d="M 525 256 L 509 260 L 495 267 L 472 288 L 459 313 L 455 333 L 455 347 L 464 379 L 474 394 L 484 404 L 497 413 L 511 419 L 524 422 L 547 422 L 566 417 L 578 411 L 589 403 L 601 390 L 609 377 L 615 361 L 618 341 L 617 326 L 612 307 L 605 293 L 586 272 L 558 258 Z"/>
<path d="M 520 813 L 492 823 L 477 834 L 468 844 L 454 872 L 451 902 L 455 922 L 463 939 L 480 958 L 492 966 L 510 973 L 540 975 L 560 970 L 572 964 L 595 943 L 608 917 L 611 902 L 611 885 L 609 873 L 601 853 L 591 839 L 579 828 L 553 815 Z"/>
<path d="M 882 440 L 853 450 L 844 456 L 828 473 L 819 489 L 814 505 L 813 534 L 821 560 L 830 574 L 841 585 L 861 597 L 879 602 L 895 603 L 913 600 L 934 591 L 954 573 L 961 563 L 969 544 L 972 514 L 969 497 L 960 477 L 941 456 L 913 442 Z"/>
<path d="M 347 626 L 331 629 L 316 635 L 304 643 L 290 657 L 277 681 L 273 700 L 273 716 L 278 737 L 285 751 L 303 771 L 330 785 L 358 788 L 386 781 L 397 775 L 413 761 L 424 745 L 430 730 L 433 700 L 425 670 L 415 655 L 396 638 L 373 628 Z"/>
<path d="M 881 808 L 866 811 L 848 819 L 832 831 L 824 840 L 810 867 L 807 880 L 807 904 L 814 928 L 824 944 L 836 956 L 856 968 L 856 852 L 858 845 L 869 832 L 881 827 L 895 828 L 906 834 L 912 841 L 916 851 L 915 872 L 897 872 L 895 853 L 890 847 L 883 847 L 877 853 L 877 911 L 891 911 L 893 913 L 893 929 L 890 932 L 877 932 L 877 973 L 899 974 L 919 969 L 933 962 L 956 941 L 969 915 L 972 900 L 972 882 L 969 867 L 962 850 L 942 826 L 917 812 L 898 808 Z"/>
</g></svg>