<svg xmlns="http://www.w3.org/2000/svg" viewBox="0 0 1774 887" width="1774" height="887">
  <g fill="#FFFFFF" stroke="none">
    <path d="M 371 245 L 370 246 L 359 246 L 358 247 L 352 247 L 351 248 L 348 248 L 347 249 L 344 249 L 343 250 L 341 250 L 340 251 L 338 251 L 337 252 L 336 252 L 335 253 L 333 253 L 332 254 L 331 254 L 330 255 L 329 255 L 328 256 L 327 256 L 326 257 L 325 257 L 323 259 L 322 259 L 320 261 L 318 261 L 317 262 L 317 263 L 316 264 L 315 264 L 314 265 L 313 265 L 313 266 L 304 275 L 303 275 L 303 277 L 302 278 L 301 278 L 301 280 L 300 281 L 299 281 L 298 282 L 298 283 L 297 284 L 297 286 L 296 287 L 296 288 L 295 289 L 294 289 L 294 292 L 293 293 L 293 294 L 292 295 L 292 297 L 291 298 L 291 299 L 289 301 L 289 306 L 287 308 L 287 318 L 286 319 L 286 322 L 285 323 L 285 635 L 286 636 L 286 637 L 287 638 L 301 638 L 302 639 L 328 639 L 329 638 L 333 638 L 334 639 L 336 639 L 337 638 L 338 638 L 339 637 L 340 637 L 340 567 L 341 566 L 370 566 L 371 565 L 372 565 L 373 564 L 374 564 L 374 516 L 341 516 L 340 515 L 340 315 L 341 314 L 342 314 L 342 313 L 343 312 L 343 309 L 344 308 L 345 308 L 349 304 L 349 303 L 351 301 L 353 301 L 355 299 L 356 299 L 357 298 L 359 298 L 360 297 L 373 297 L 374 298 L 380 298 L 381 299 L 382 299 L 383 300 L 384 300 L 387 303 L 388 303 L 392 307 L 392 309 L 393 309 L 394 310 L 394 311 L 395 312 L 395 313 L 396 314 L 396 316 L 397 317 L 397 321 L 398 322 L 398 402 L 450 402 L 451 401 L 451 320 L 450 319 L 450 315 L 449 314 L 449 309 L 448 308 L 448 305 L 447 304 L 447 302 L 446 301 L 446 299 L 445 298 L 445 296 L 444 295 L 444 294 L 443 293 L 443 292 L 442 291 L 442 290 L 441 289 L 441 288 L 440 287 L 440 286 L 439 285 L 439 283 L 438 283 L 437 282 L 437 281 L 435 279 L 435 277 L 434 277 L 430 273 L 430 272 L 429 272 L 421 264 L 421 263 L 420 263 L 419 262 L 418 262 L 416 260 L 415 260 L 414 259 L 414 258 L 412 258 L 411 257 L 410 257 L 409 256 L 408 256 L 407 255 L 406 255 L 405 254 L 404 254 L 402 252 L 399 252 L 398 251 L 397 251 L 396 250 L 393 250 L 392 249 L 389 249 L 388 248 L 385 248 L 384 247 L 383 247 L 382 246 L 374 246 L 373 245 Z"/> <path d="M 513 346 L 513 350 L 512 351 L 512 410 L 513 411 L 513 413 L 512 414 L 512 504 L 513 505 L 513 513 L 514 514 L 514 518 L 515 519 L 515 523 L 516 524 L 516 526 L 517 527 L 517 529 L 518 530 L 518 532 L 519 533 L 519 534 L 520 535 L 520 536 L 521 537 L 521 538 L 522 539 L 522 540 L 523 541 L 523 542 L 524 543 L 524 545 L 528 549 L 528 550 L 531 553 L 531 554 L 533 556 L 533 557 L 535 559 L 536 559 L 540 563 L 541 563 L 544 566 L 545 566 L 548 569 L 549 569 L 550 570 L 551 570 L 552 571 L 552 572 L 554 572 L 555 573 L 556 573 L 557 574 L 558 574 L 559 575 L 561 575 L 562 576 L 563 576 L 564 577 L 566 577 L 567 578 L 567 579 L 571 579 L 572 580 L 575 580 L 576 581 L 576 582 L 580 582 L 581 583 L 584 583 L 585 582 L 587 582 L 589 584 L 610 584 L 610 583 L 611 582 L 614 582 L 615 583 L 617 583 L 617 582 L 618 581 L 620 581 L 621 582 L 623 582 L 623 581 L 624 580 L 626 580 L 627 579 L 632 579 L 633 580 L 633 660 L 632 661 L 632 662 L 629 665 L 628 665 L 627 666 L 624 666 L 623 667 L 595 667 L 595 716 L 634 716 L 636 714 L 638 714 L 639 715 L 641 715 L 641 714 L 642 713 L 644 713 L 645 712 L 650 712 L 650 711 L 651 710 L 655 710 L 656 709 L 657 709 L 658 708 L 658 707 L 659 706 L 661 706 L 663 704 L 664 704 L 664 703 L 666 701 L 667 701 L 668 700 L 669 700 L 673 696 L 673 694 L 677 690 L 677 689 L 678 688 L 678 687 L 679 686 L 680 686 L 680 685 L 681 684 L 681 682 L 682 681 L 682 679 L 683 678 L 683 677 L 684 676 L 684 674 L 685 673 L 685 669 L 687 667 L 687 665 L 686 664 L 686 662 L 687 661 L 687 660 L 688 659 L 688 351 L 687 350 L 687 346 L 633 346 L 633 510 L 632 511 L 632 513 L 631 514 L 631 515 L 630 516 L 630 517 L 629 518 L 629 519 L 628 520 L 628 521 L 622 527 L 621 527 L 619 529 L 617 529 L 615 531 L 614 531 L 613 532 L 611 532 L 610 533 L 593 533 L 592 532 L 586 532 L 585 531 L 584 531 L 582 529 L 580 529 L 579 528 L 579 527 L 577 527 L 572 522 L 572 521 L 570 519 L 570 518 L 569 517 L 569 516 L 568 515 L 568 513 L 567 512 L 567 509 L 566 508 L 566 505 L 567 504 L 567 346 Z"/> <path d="M 785 250 L 784 251 L 783 251 L 783 254 L 782 255 L 782 631 L 783 632 L 783 635 L 782 636 L 782 638 L 784 638 L 785 639 L 833 639 L 834 638 L 836 638 L 836 608 L 837 607 L 837 600 L 836 599 L 836 592 L 837 591 L 837 582 L 836 581 L 836 465 L 837 464 L 837 461 L 836 460 L 836 456 L 837 455 L 837 436 L 836 435 L 836 432 L 837 431 L 837 419 L 836 418 L 836 268 L 837 267 L 837 255 L 836 254 L 836 251 L 835 250 L 833 250 L 832 251 L 827 251 L 826 250 L 808 250 L 807 251 L 800 251 L 799 250 Z"/> <path d="M 952 258 L 951 259 L 946 259 L 946 261 L 945 262 L 945 637 L 946 638 L 948 638 L 949 639 L 957 639 L 958 638 L 969 638 L 970 639 L 980 639 L 981 638 L 985 638 L 986 639 L 988 639 L 989 638 L 999 638 L 999 395 L 1001 393 L 1053 393 L 1053 346 L 1000 346 L 999 345 L 999 259 L 993 259 L 992 258 L 972 258 L 971 259 L 963 259 L 962 258 Z"/> <path d="M 1203 344 L 1202 345 L 1196 345 L 1195 346 L 1188 346 L 1187 347 L 1185 347 L 1184 348 L 1181 348 L 1180 349 L 1178 349 L 1177 350 L 1175 350 L 1174 351 L 1173 351 L 1172 352 L 1169 352 L 1167 354 L 1166 354 L 1165 355 L 1163 355 L 1163 356 L 1162 357 L 1161 357 L 1159 359 L 1158 359 L 1156 361 L 1154 361 L 1153 362 L 1153 363 L 1144 372 L 1143 372 L 1143 373 L 1142 374 L 1142 375 L 1139 378 L 1139 379 L 1138 380 L 1137 380 L 1137 382 L 1136 383 L 1135 383 L 1135 385 L 1134 386 L 1134 387 L 1133 388 L 1133 389 L 1132 390 L 1132 391 L 1131 392 L 1131 394 L 1130 395 L 1130 396 L 1129 397 L 1129 399 L 1128 400 L 1128 402 L 1127 403 L 1127 407 L 1126 408 L 1126 412 L 1125 413 L 1125 418 L 1124 419 L 1124 462 L 1125 463 L 1125 471 L 1124 472 L 1124 476 L 1125 477 L 1125 479 L 1124 480 L 1124 498 L 1125 499 L 1125 511 L 1124 512 L 1124 515 L 1125 516 L 1125 519 L 1124 520 L 1124 522 L 1125 523 L 1125 535 L 1124 536 L 1124 545 L 1125 546 L 1125 551 L 1124 552 L 1124 578 L 1125 579 L 1125 599 L 1124 600 L 1124 634 L 1125 635 L 1125 638 L 1126 639 L 1175 639 L 1176 638 L 1176 418 L 1177 417 L 1177 414 L 1178 413 L 1178 411 L 1179 410 L 1179 409 L 1180 408 L 1180 407 L 1182 405 L 1182 404 L 1186 400 L 1187 400 L 1190 397 L 1191 397 L 1192 396 L 1194 396 L 1195 395 L 1197 395 L 1198 394 L 1200 394 L 1201 395 L 1213 395 L 1214 396 L 1216 396 L 1217 397 L 1218 397 L 1220 399 L 1221 399 L 1225 403 L 1225 404 L 1228 407 L 1228 408 L 1229 409 L 1229 410 L 1230 411 L 1230 413 L 1231 414 L 1231 418 L 1232 419 L 1232 471 L 1282 471 L 1283 470 L 1283 414 L 1282 413 L 1282 408 L 1281 407 L 1281 404 L 1280 403 L 1280 400 L 1279 399 L 1279 398 L 1278 397 L 1278 394 L 1277 393 L 1277 392 L 1276 391 L 1276 390 L 1275 389 L 1275 388 L 1274 387 L 1274 386 L 1273 385 L 1273 384 L 1271 382 L 1271 381 L 1269 379 L 1269 378 L 1266 375 L 1266 373 L 1265 373 L 1259 367 L 1259 366 L 1258 365 L 1257 365 L 1253 361 L 1252 361 L 1251 360 L 1251 359 L 1249 359 L 1247 357 L 1246 357 L 1245 356 L 1244 356 L 1242 354 L 1241 354 L 1240 353 L 1239 353 L 1238 352 L 1236 352 L 1235 351 L 1234 351 L 1232 349 L 1228 349 L 1227 348 L 1225 348 L 1224 347 L 1221 347 L 1220 346 L 1220 345 L 1218 345 L 1217 346 L 1214 346 L 1213 345 L 1210 345 L 1209 344 Z"/> <path d="M 1410 344 L 1409 345 L 1407 345 L 1406 346 L 1403 346 L 1402 345 L 1400 345 L 1400 346 L 1399 347 L 1395 347 L 1394 348 L 1392 348 L 1391 349 L 1388 349 L 1387 350 L 1386 350 L 1385 351 L 1384 351 L 1383 352 L 1381 352 L 1380 353 L 1379 353 L 1378 354 L 1377 354 L 1376 355 L 1375 355 L 1374 356 L 1373 356 L 1371 358 L 1370 358 L 1367 361 L 1365 361 L 1365 362 L 1363 364 L 1362 364 L 1357 369 L 1356 369 L 1355 370 L 1355 372 L 1353 374 L 1352 374 L 1351 375 L 1351 377 L 1349 379 L 1348 379 L 1348 381 L 1347 382 L 1347 383 L 1346 384 L 1345 384 L 1345 386 L 1344 387 L 1344 388 L 1343 389 L 1342 389 L 1342 392 L 1341 393 L 1341 395 L 1340 396 L 1340 397 L 1339 398 L 1339 400 L 1338 401 L 1338 403 L 1337 404 L 1336 404 L 1336 417 L 1334 419 L 1334 612 L 1335 613 L 1335 615 L 1334 616 L 1334 637 L 1335 637 L 1337 639 L 1386 639 L 1387 638 L 1387 636 L 1388 635 L 1388 633 L 1387 632 L 1387 629 L 1388 628 L 1388 608 L 1387 607 L 1387 605 L 1388 604 L 1388 599 L 1387 598 L 1387 594 L 1388 593 L 1416 593 L 1417 592 L 1419 592 L 1421 590 L 1421 587 L 1420 586 L 1420 547 L 1419 546 L 1419 543 L 1388 543 L 1387 542 L 1387 537 L 1388 536 L 1388 413 L 1389 412 L 1389 410 L 1390 409 L 1390 408 L 1392 406 L 1392 405 L 1398 399 L 1399 399 L 1401 397 L 1402 397 L 1403 396 L 1404 396 L 1405 395 L 1408 395 L 1409 394 L 1412 394 L 1413 395 L 1415 395 L 1416 394 L 1423 394 L 1424 395 L 1426 395 L 1427 396 L 1428 396 L 1430 398 L 1432 398 L 1436 402 L 1437 402 L 1438 403 L 1438 405 L 1439 406 L 1440 406 L 1441 407 L 1441 408 L 1442 409 L 1442 410 L 1443 411 L 1443 413 L 1444 414 L 1444 417 L 1445 418 L 1445 638 L 1446 638 L 1447 639 L 1487 639 L 1488 638 L 1490 638 L 1491 639 L 1494 639 L 1495 638 L 1497 638 L 1497 417 L 1496 416 L 1496 413 L 1495 412 L 1495 408 L 1494 407 L 1494 404 L 1493 403 L 1493 400 L 1492 399 L 1492 395 L 1491 395 L 1490 394 L 1490 391 L 1488 389 L 1488 386 L 1487 385 L 1486 385 L 1485 384 L 1485 382 L 1484 381 L 1484 380 L 1483 380 L 1482 379 L 1482 377 L 1481 377 L 1480 376 L 1480 374 L 1479 374 L 1477 372 L 1477 371 L 1476 371 L 1475 370 L 1475 369 L 1472 366 L 1471 366 L 1470 365 L 1470 364 L 1468 364 L 1463 359 L 1462 359 L 1461 358 L 1460 358 L 1458 356 L 1457 356 L 1456 355 L 1455 355 L 1454 354 L 1453 354 L 1452 353 L 1451 353 L 1450 352 L 1449 352 L 1448 351 L 1448 350 L 1444 350 L 1443 349 L 1441 349 L 1440 348 L 1437 348 L 1436 347 L 1432 347 L 1431 346 L 1426 346 L 1425 345 L 1418 345 L 1417 344 Z"/>
  </g>
</svg>